<?xml version="1.0" standalone="no"?><!DOCTYPE svg PUBLIC "-//W3C//DTD SVG 1.1//EN" "http://www.w3.org/Graphics/SVG/1.1/DTD/svg11.dtd"><svg t="1508591198485" class="icon" style="" viewBox="0 0 1024 1024" version="1.1" xmlns="http://www.w3.org/2000/svg" p-id="4121" xmlns:xlink="http://www.w3.org/1999/xlink" width="128" height="128"><defs><style type="text/css"></style></defs><path d="M783.059 0H240.941C107.866 0 0 107.866 0 240.941v542.118C0 916.134 107.866 1024 240.941 1024h542.118C916.134 1024 1024 916.134 1024 783.059V240.941C1024 107.866 916.134 0 783.059 0zM512 785.122c-38.174 0-74.933-5.316-109.327-15.104a138.1 138.1 0 0 0-29.621 8.87l-67.087 42.104c-19.877 13.297-26.338 8.282-19.381-15.044l14.909-52.63a84.088 84.088 0 0 0-2.726-30.946c-80.941-54.001-133.12-137.954-133.12-231.921 0-162.304 155.588-294.686 346.353-294.686 116.36 0 219.633 49.257 282.488 124.506L471.657 473.6c-22.257 13.387-44.513 16.203-66.77-4.216l-51.471-46.306c-23.507-7.003-31.85 0.482-25.043 22.452l55.642 136.117c12.484 20.42 30.961 27.257 62.6 4.201l374.497-228.08c23.793 39.905 37.226 84.992 37.226 132.668 0.015 162.319-155.573 294.686-346.338 294.686z" fill="#59B64C" p-id="4122"></path></svg>