<?xml version="1.0" standalone="no"?><!DOCTYPE svg PUBLIC "-//W3C//DTD SVG 1.1//EN" "http://www.w3.org/Graphics/SVG/1.1/DTD/svg11.dtd"><svg t="1508591652741" class="icon" style="" viewBox="0 0 1024 1024" version="1.1" xmlns="http://www.w3.org/2000/svg" p-id="4796" xmlns:xlink="http://www.w3.org/1999/xlink" width="128" height="128"><defs><style type="text/css"></style></defs><path d="M283.486316 791.713684c-149.557895 0-173.271579-94.585263-165.456842-134.197895 8.084211-39.073684 51.2-90.543158 134.467368-90.543157 95.663158 0 181.355789 24.522105 284.025263 74.64421-72.218947 94.046316-160.875789 150.096842-253.035789 150.096842zM1024 701.170526V196.985263C1024 88.117895 935.882105 0 827.014737 0H196.985263C88.117895 0 0 88.117895 0 196.985263v630.029474C0 935.882105 88.117895 1024 196.985263 1024h630.029474c97.010526 0 177.583158-70.063158 194.021052-162.223158-52.277895-22.366316-278.635789-120.185263-396.395789-176.505263-89.734737 108.597895-183.781053 173.810526-325.524211 173.810526-141.473684 0-236.058947-87.04-224.741052-194.021052 7.545263-70.063158 55.511579-184.589474 264.353684-164.917895 109.945263 10.24 160.336842 30.989474 250.071579 60.631579 23.174737-42.576842 42.576842-89.465263 57.128421-139.317895H248.185263v-39.612631h196.71579v-70.602106H204.8V267.856842h240.101053V165.726316s2.155789-16.168421 19.941052-16.168421h98.357895v118.298947h256v43.385263h-256v70.602106h208.842105c-19.132632 78.147368-48.235789 150.096842-84.88421 212.88421 60.631579 21.827368 336.842105 106.442105 336.842105 106.442105z" fill="#009FE8" p-id="4797"></path></svg>